PathFileType	4	(X/Y/Z)	Patient4_TMGait_0pt6_01_right_01.trc.trc
DataRate	CameraRate	NumFrames	NumMarkers	Units	OrigDataRate	OrigDataStartFrame	OrigNumFrames
82.352941176471	82.352941176471	4	33	mm	82.352941176471	89	       141
Frame#	Time	Sacral			L.Shoulder			Chest			R.Shoulder			Neck			R.ASIS			L.ASIS			R.Thigh.Superior			R.Thigh.Lateral			R.Thigh.Inferior			R.Patella			L.Thigh.Superior			L.Thigh.Lateral			L.Thigh.Inferior			L.Patella			L.Shank.Superior			L.Shank.Lateral			L.Shank.Inferior			R.Shank.Superior			R.Shank.Lateral			R.Shank.Inferior			R.Heel			R.Midfoot.Superior			R.Midfoot.Lateral			R.Toe			L.Heel			L.Midfoot.Lateral			L.Midfoot.Superior			L.Toe			L.Elbow			L.Wrist			R.Elbow			R.Wrist			
		X1	Y1	Z1	X2	Y2	Z2	X3	Y3	Z3	X4	Y4	Z4	X5	Y5	Z5	X6	Y6	Z6	X7	Y7	Z7	X8	Y8	Z8	X9	Y9	Z9	X10	Y10	Z10	X11	Y11	Z11	X12	Y12	Z12	X13	Y13	Z13	X14	Y14	Z14	X15	Y15	Z15	X16	Y16	Z16	X17	Y17	Z17	X18	Y18	Z18	X19	Y19	Z19	X20	Y20	Z20	X21	Y21	Z21	X22	Y22	Z22	X23	Y23	Z23	X24	Y24	Z24	X25	Y25	Z25	X26	Y26	Z26	X27	Y27	Z27	X28	Y28	Z28	X29	Y29	Z29	X30	Y30	Z30	X31	Y31	Z31	X32	Y32	Z32	X33	Y33	Z33	

89	1.658571428571	601.159743736064	996.949189360929	445.949798677983	728.555759349414	1434.226104973754	260.758197836032	853.862362768270	1370.089772421860	406.947508951401	787.060597658113	1434.695385211012	590.939637099218	728.375922277327	1491.189049668732	418.274962675012	837.339842564157	934.799716003395	541.114797875518	802.101048995518	963.411639313919	270.192683558453	867.946054734071	729.188594850045	521.248104841525	787.023515329570	622.546797462645	588.928558826304	864.584908563016	561.002787531422	514.279614817494	852.586872485278	452.265984714083	535.231674627756	873.345554985267	761.381940398688	299.411449040816	797.712767091185	635.377358006171	243.977708176980	894.488373630501	568.234506250024	302.591307396860	903.474863079773	497.746895894594	311.696314576582	880.170833858601	422.630086208544	307.062503635539	794.968682307730	302.002158858214	266.676710260632	858.296514232057	196.068273843160	334.423077590906	774.391774645429	385.687244091926	541.054309339684	653.800329170347	345.339042745854	601.438838658368	639.070215631449	237.068570799039	550.447914651102	435.379085482930	167.114605748501	523.334097642362	607.100999947619	119.860781553286	559.988021764371	498.369233079790	108.850915186173	593.061919095983	679.696936669405	30.530844933442	579.864620714518	742.592877657228	37.795948271269	390.299001300429	807.179757354481	34.911134981058	301.570132040461	891.924773466667	97.280519922899	318.664324364504	1016.742923051790	46.887944831565	276.422954029050	678.604816635944	1077.662120169607	156.972901010880	726.085709868209	822.348777783716	155.045592587098	842.143503791739	1089.113448756868	707.060093669894	1067.651942125966	969.273185915380	675.109794266502	
90	1.670714285714	600.428792876096	997.247870509280	442.669709435957	729.504446615179	1435.059139457322	258.416339441992	853.724344052152	1370.662631024655	405.390769215112	785.584656343815	1434.880322703307	589.043589752211	728.140235837048	1491.766721511601	416.113433193697	836.696398441419	935.525784007168	538.804006241847	802.222619029913	963.959435805643	267.824365002023	872.681890399244	731.776741321464	519.415287491032	794.758090660907	623.647036291491	587.433361278834	874.066048352863	563.359164288416	512.865987386097	863.444264980219	453.564041623026	534.316978234504	871.516350437678	760.487906684829	296.095040313589	794.046369267258	635.279441440018	241.767678790034	890.166340248884	567.278495954248	300.113546368274	898.420919566852	496.921519148027	309.573706363756	874.817596126489	421.937496874179	305.296697427750	788.958258403790	301.618785942324	265.476699163513	851.597658164277	195.620492404008	333.687162805156	783.676127119621	387.654880397830	540.194174829785	661.808343210610	351.174342028350	600.664316857208	644.126737291191	243.078917307858	550.486721367935	438.955220455995	182.282636221810	523.805933710213	607.883563493270	125.011180646049	560.196415806348	498.672762876249	120.207649026714	593.384523178691	674.799204748160	29.668893818059	580.094876182328	735.246434470111	37.753461616575	390.239006028081	799.770001409636	34.784606349366	301.456591178295	884.627905774198	97.061666034297	318.523482389139	1009.454538085695	46.429224189523	276.284441249848	685.513190553515	1078.046974766869	152.422637333683	743.038788140826	824.571134163412	150.164178851943	834.350483838772	1088.126698946739	705.019135041862	1052.581531740640	954.214393752984	674.699316676623	
91	1.682857142857	599.554231101750	997.484649083218	439.610735020358	730.427643615084	1435.744147044241	256.163536515929	853.551858396042	1371.078359462308	403.930787964311	784.124462051369	1434.959088679856	587.244332366613	727.942484231519	1492.272909207549	414.024290930608	835.947380070145	936.196836184126	536.685074003562	802.118648884401	964.386879645892	265.596461378383	877.271256764002	734.567796373104	517.412068791590	802.473688676483	624.986779459916	585.819093115694	883.281289621998	566.080570278455	511.118418257569	874.194635694352	455.288703384511	532.901651133922	869.535435945224	759.614775011367	292.919186568711	790.297248416280	635.206837656763	239.640704515918	885.771452219776	566.359150459549	297.703110736024	893.291155298157	496.118360308053	307.478507782208	869.407269939886	421.278083537431	303.572278703612	782.907815834530	301.264483841338	264.270314567192	844.889608664814	195.192244633437	332.924190108762	793.032347764144	389.934721800439	538.931464732601	670.203799227227	356.989033400805	599.684045872865	649.665549035346	249.211935564342	550.166766353582	443.482247507225	196.898471648956	524.044252583981	609.506783261174	130.638172376991	560.147693600960	500.106152314895	131.560552525079	593.540768537193	671.055650541256	29.234806420621	580.223961324682	727.915106059419	37.734721620864	390.157194160738	792.378729498755	34.670344879875	301.333567081511	877.360538775721	96.846849949701	318.362717812220	1002.187034574117	45.946963488133	276.145120630178	692.608417928938	1078.471018391219	147.782318679989	760.298330736968	827.260507384201	145.347863438813	826.410772869263	1087.068730961780	702.910820325867	1036.251449433111	939.198511325737	674.375571107469	
92	1.695000000000	598.581721079069	997.706432821761	436.782492173291	731.277122389681	1436.324629794985	254.021803470773	853.328371633850	1371.389801799300	402.565524414071	782.691084608712	1434.983039229261	585.547582166127	727.767221551021	1492.744589483404	412.024847608663	835.103501548966	936.851717978518	534.741603580854	801.819363743414	964.744821030628	263.506822176326	881.598277679239	737.560306671371	515.204370776725	810.029817353457	626.587425479646	584.076554497103	892.097200679487	569.167657206964	509.056410320636	884.729259517902	457.441922153322	531.061202135456	867.461488744448	758.788627001711	289.922635344875	786.488882686802	635.172442508952	237.652736013517	881.327586400095	565.481015438842	295.425292016731	888.113106782868	495.347945913313	305.498435645671	863.958261430259	420.665285806182	301.950523814128	776.829113708248	300.962581393349	263.103558651767	838.178677251068	194.793920620502	332.165551693191	802.363254244611	392.512168315512	537.330447772157	678.850104536520	362.689435044192	598.502978193848	655.663685138557	255.322152734230	549.511372585521	448.854084501376	210.474080441960	524.033795689700	612.095320066243	136.557336353021	559.842735241155	502.729563171771	142.482428889682	593.502035494927	668.804019094827	29.403037392802	580.180724998623	720.599937662986	37.740802101005	390.055165490285	785.010773860087	34.574930959972	301.204977546502	870.119167160546	96.648201098422	318.189303556710	994.938288233824	45.467550790142	276.009607101639	699.905890002105	1078.983568476862	143.095401166705	777.754498572987	830.464660671348	140.644163604197	818.336652472498	1086.002144911886	700.729937824432	1018.661832059252	924.447671977795	674.125596544916	
